<mxfile host="app.diagrams.net" agent="Mozilla/5.0 (Windows NT 10.0; Win64; x64) AppleWebKit/537.36 (KHTML, like Gecko) Chrome/134.0.0.0 Safari/537.36" version="26.2.9">
  <diagram id="R2lEEEUBdFMjLlhIrx00" name="Page-1">
    <mxGraphModel dx="1965" dy="669" grid="1" gridSize="10" guides="1" tooltips="1" connect="1" arrows="1" fold="1" page="1" pageScale="1" pageWidth="850" pageHeight="1100" math="0" shadow="0" extFonts="Permanent Marker^https://fonts.googleapis.com/css?family=Permanent+Marker">
      <root>
        <mxCell id="0" />
        <mxCell id="1" parent="0" />
        <mxCell id="ibcruFRzmaZoAH3_3LqD-2" value="USUARIO" style="rounded=1;whiteSpace=wrap;html=1;" parent="1" vertex="1">
          <mxGeometry x="880" y="157.5" width="120" height="60" as="geometry" />
        </mxCell>
        <mxCell id="X0XYi1Hsc6SYG7ZAuI2Y-37" style="edgeStyle=orthogonalEdgeStyle;rounded=0;orthogonalLoop=1;jettySize=auto;html=1;endArrow=none;endFill=1;startFill=0;" edge="1" parent="1" source="ibcruFRzmaZoAH3_3LqD-3" target="X0XYi1Hsc6SYG7ZAuI2Y-35">
          <mxGeometry relative="1" as="geometry">
            <Array as="points">
              <mxPoint x="-310" y="590" />
              <mxPoint x="-310" y="590" />
            </Array>
          </mxGeometry>
        </mxCell>
        <mxCell id="ibcruFRzmaZoAH3_3LqD-3" value="PUNTO TURISTICO" style="rounded=1;whiteSpace=wrap;html=1;" parent="1" vertex="1">
          <mxGeometry x="-375" y="610" width="120" height="60" as="geometry" />
        </mxCell>
        <mxCell id="ibcruFRzmaZoAH3_3LqD-28" style="rounded=0;orthogonalLoop=1;jettySize=auto;html=1;endArrow=none;startFill=0;" parent="1" source="ibcruFRzmaZoAH3_3LqD-9" target="ibcruFRzmaZoAH3_3LqD-2" edge="1">
          <mxGeometry relative="1" as="geometry" />
        </mxCell>
        <mxCell id="ibcruFRzmaZoAH3_3LqD-9" value="APELLIDO" style="ellipse;whiteSpace=wrap;html=1;" parent="1" vertex="1">
          <mxGeometry x="870" y="40" width="70" height="40" as="geometry" />
        </mxCell>
        <mxCell id="ibcruFRzmaZoAH3_3LqD-27" style="rounded=0;orthogonalLoop=1;jettySize=auto;html=1;endArrow=none;startFill=0;" parent="1" source="ibcruFRzmaZoAH3_3LqD-10" target="ibcruFRzmaZoAH3_3LqD-2" edge="1">
          <mxGeometry relative="1" as="geometry" />
        </mxCell>
        <mxCell id="ibcruFRzmaZoAH3_3LqD-10" value="&lt;span&gt;CORREO&lt;/span&gt;" style="ellipse;whiteSpace=wrap;html=1;fontStyle=0" parent="1" vertex="1">
          <mxGeometry x="1000" y="80" width="70" height="40" as="geometry" />
        </mxCell>
        <mxCell id="ibcruFRzmaZoAH3_3LqD-25" style="rounded=0;orthogonalLoop=1;jettySize=auto;html=1;endArrow=none;startFill=0;" parent="1" source="ibcruFRzmaZoAH3_3LqD-12" target="ibcruFRzmaZoAH3_3LqD-2" edge="1">
          <mxGeometry relative="1" as="geometry" />
        </mxCell>
        <mxCell id="ibcruFRzmaZoAH3_3LqD-12" value="FECHA DE NACIMIENTO" style="ellipse;whiteSpace=wrap;html=1;" parent="1" vertex="1">
          <mxGeometry x="940" y="30" width="110" height="50" as="geometry" />
        </mxCell>
        <mxCell id="ibcruFRzmaZoAH3_3LqD-29" style="rounded=0;orthogonalLoop=1;jettySize=auto;html=1;endArrow=none;startFill=0;" parent="1" source="ibcruFRzmaZoAH3_3LqD-13" target="ibcruFRzmaZoAH3_3LqD-2" edge="1">
          <mxGeometry relative="1" as="geometry" />
        </mxCell>
        <mxCell id="ibcruFRzmaZoAH3_3LqD-13" value="NOMBRE" style="ellipse;whiteSpace=wrap;html=1;" parent="1" vertex="1">
          <mxGeometry x="800" y="52.5" width="70" height="40" as="geometry" />
        </mxCell>
        <mxCell id="ibcruFRzmaZoAH3_3LqD-18" value="ESTADO" style="ellipse;whiteSpace=wrap;html=1;" parent="1" vertex="1">
          <mxGeometry x="-500" y="740" width="70" height="40" as="geometry" />
        </mxCell>
        <mxCell id="ibcruFRzmaZoAH3_3LqD-32" style="rounded=0;orthogonalLoop=1;jettySize=auto;html=1;endArrow=none;startFill=0;" parent="1" source="ibcruFRzmaZoAH3_3LqD-19" target="ibcruFRzmaZoAH3_3LqD-3" edge="1">
          <mxGeometry relative="1" as="geometry" />
        </mxCell>
        <mxCell id="ibcruFRzmaZoAH3_3LqD-19" value="NOMBRE" style="ellipse;whiteSpace=wrap;html=1;" parent="1" vertex="1">
          <mxGeometry x="-580" y="740" width="70" height="40" as="geometry" />
        </mxCell>
        <mxCell id="ibcruFRzmaZoAH3_3LqD-30" style="rounded=0;orthogonalLoop=1;jettySize=auto;html=1;endArrow=none;startFill=0;" parent="1" source="ibcruFRzmaZoAH3_3LqD-20" target="ibcruFRzmaZoAH3_3LqD-2" edge="1">
          <mxGeometry relative="1" as="geometry" />
        </mxCell>
        <mxCell id="ibcruFRzmaZoAH3_3LqD-20" value="ROLE" style="ellipse;whiteSpace=wrap;html=1;" parent="1" vertex="1">
          <mxGeometry x="740" y="80" width="70" height="40" as="geometry" />
        </mxCell>
        <mxCell id="ibcruFRzmaZoAH3_3LqD-31" style="rounded=0;orthogonalLoop=1;jettySize=auto;html=1;endArrow=none;startFill=0;" parent="1" source="ibcruFRzmaZoAH3_3LqD-21" target="ibcruFRzmaZoAH3_3LqD-3" edge="1">
          <mxGeometry relative="1" as="geometry" />
        </mxCell>
        <mxCell id="ibcruFRzmaZoAH3_3LqD-21" value="&lt;span&gt;UBICACION&lt;/span&gt;" style="ellipse;whiteSpace=wrap;html=1;fontStyle=0" parent="1" vertex="1">
          <mxGeometry x="-570" y="685" width="80" height="50" as="geometry" />
        </mxCell>
        <mxCell id="ibcruFRzmaZoAH3_3LqD-34" style="rounded=0;orthogonalLoop=1;jettySize=auto;html=1;endArrow=none;startFill=0;" parent="1" source="ibcruFRzmaZoAH3_3LqD-22" target="ibcruFRzmaZoAH3_3LqD-3" edge="1">
          <mxGeometry relative="1" as="geometry" />
        </mxCell>
        <mxCell id="ibcruFRzmaZoAH3_3LqD-22" value="DESCRIPCION" style="ellipse;whiteSpace=wrap;html=1;" parent="1" vertex="1">
          <mxGeometry x="-490" y="790" width="120" height="50" as="geometry" />
        </mxCell>
        <mxCell id="ibcruFRzmaZoAH3_3LqD-33" style="rounded=0;orthogonalLoop=1;jettySize=auto;html=1;entryX=0.25;entryY=1;entryDx=0;entryDy=0;endArrow=none;startFill=0;" parent="1" source="ibcruFRzmaZoAH3_3LqD-18" target="ibcruFRzmaZoAH3_3LqD-3" edge="1">
          <mxGeometry relative="1" as="geometry" />
        </mxCell>
        <mxCell id="ibcruFRzmaZoAH3_3LqD-41" value="" style="group" parent="1" vertex="1" connectable="0">
          <mxGeometry x="895" y="257.5" width="90" height="60" as="geometry" />
        </mxCell>
        <mxCell id="ibcruFRzmaZoAH3_3LqD-40" value="" style="rounded=0;whiteSpace=wrap;html=1;movable=1;resizable=1;rotatable=1;deletable=1;editable=1;locked=0;connectable=1;" parent="ibcruFRzmaZoAH3_3LqD-41" vertex="1">
          <mxGeometry width="90" height="60" as="geometry" />
        </mxCell>
        <mxCell id="ibcruFRzmaZoAH3_3LqD-39" value="VISITA" style="rhombus;whiteSpace=wrap;html=1;movable=1;resizable=1;rotatable=1;deletable=1;editable=1;locked=0;connectable=1;" parent="ibcruFRzmaZoAH3_3LqD-41" vertex="1">
          <mxGeometry x="2.5" width="85" height="60" as="geometry" />
        </mxCell>
        <mxCell id="ibcruFRzmaZoAH3_3LqD-42" style="edgeStyle=orthogonalEdgeStyle;rounded=0;orthogonalLoop=1;jettySize=auto;html=1;endArrow=none;startFill=0;" parent="1" source="ibcruFRzmaZoAH3_3LqD-40" target="ibcruFRzmaZoAH3_3LqD-2" edge="1">
          <mxGeometry relative="1" as="geometry" />
        </mxCell>
        <mxCell id="ibcruFRzmaZoAH3_3LqD-43" style="edgeStyle=orthogonalEdgeStyle;rounded=0;orthogonalLoop=1;jettySize=auto;html=1;endArrow=none;startFill=0;" parent="1" source="ibcruFRzmaZoAH3_3LqD-40" edge="1">
          <mxGeometry relative="1" as="geometry">
            <mxPoint x="670" y="340" as="targetPoint" />
            <Array as="points" />
          </mxGeometry>
        </mxCell>
        <mxCell id="ibcruFRzmaZoAH3_3LqD-56" value="N" style="text;html=1;align=center;verticalAlign=middle;resizable=0;points=[];autosize=1;strokeColor=none;fillColor=none;" parent="1" vertex="1">
          <mxGeometry x="910" y="217.5" width="30" height="30" as="geometry" />
        </mxCell>
        <mxCell id="ibcruFRzmaZoAH3_3LqD-57" value="M" style="text;html=1;align=center;verticalAlign=middle;resizable=0;points=[];autosize=1;strokeColor=none;fillColor=none;" parent="1" vertex="1">
          <mxGeometry x="620" y="317.5" width="30" height="30" as="geometry" />
        </mxCell>
        <mxCell id="ibcruFRzmaZoAH3_3LqD-58" value="IMAGEN" style="rounded=1;whiteSpace=wrap;html=1;" parent="1" vertex="1">
          <mxGeometry x="127" y="600" width="120" height="60" as="geometry" />
        </mxCell>
        <mxCell id="ibcruFRzmaZoAH3_3LqD-59" style="rounded=0;orthogonalLoop=1;jettySize=auto;html=1;endArrow=none;startFill=0;" parent="1" source="ibcruFRzmaZoAH3_3LqD-60" target="ibcruFRzmaZoAH3_3LqD-58" edge="1">
          <mxGeometry relative="1" as="geometry" />
        </mxCell>
        <mxCell id="ibcruFRzmaZoAH3_3LqD-60" value="ESTADO" style="ellipse;whiteSpace=wrap;html=1;" parent="1" vertex="1">
          <mxGeometry x="280" y="646.25" width="70" height="40" as="geometry" />
        </mxCell>
        <mxCell id="ibcruFRzmaZoAH3_3LqD-61" style="rounded=0;orthogonalLoop=1;jettySize=auto;html=1;endArrow=none;startFill=0;" parent="1" source="ibcruFRzmaZoAH3_3LqD-62" target="ibcruFRzmaZoAH3_3LqD-58" edge="1">
          <mxGeometry relative="1" as="geometry" />
        </mxCell>
        <mxCell id="ibcruFRzmaZoAH3_3LqD-62" value="URL" style="ellipse;whiteSpace=wrap;html=1;" parent="1" vertex="1">
          <mxGeometry x="152" y="735" width="70" height="40" as="geometry" />
        </mxCell>
        <mxCell id="ibcruFRzmaZoAH3_3LqD-63" style="rounded=0;orthogonalLoop=1;jettySize=auto;html=1;endArrow=none;startFill=0;" parent="1" source="ibcruFRzmaZoAH3_3LqD-64" target="ibcruFRzmaZoAH3_3LqD-58" edge="1">
          <mxGeometry relative="1" as="geometry" />
        </mxCell>
        <mxCell id="ibcruFRzmaZoAH3_3LqD-64" value="FECHA_SUBIDA" style="ellipse;whiteSpace=wrap;html=1;" parent="1" vertex="1">
          <mxGeometry x="260" y="725" width="110" height="50" as="geometry" />
        </mxCell>
        <mxCell id="ibcruFRzmaZoAH3_3LqD-65" style="rounded=0;orthogonalLoop=1;jettySize=auto;html=1;endArrow=none;startFill=0;" parent="1" source="ibcruFRzmaZoAH3_3LqD-66" target="ibcruFRzmaZoAH3_3LqD-58" edge="1">
          <mxGeometry relative="1" as="geometry" />
        </mxCell>
        <mxCell id="ibcruFRzmaZoAH3_3LqD-66" value="&lt;u&gt;IMG_ID&lt;/u&gt;" style="ellipse;whiteSpace=wrap;html=1;" parent="1" vertex="1">
          <mxGeometry x="10" y="720" width="110" height="55" as="geometry" />
        </mxCell>
        <mxCell id="ibcruFRzmaZoAH3_3LqD-68" value="M" style="text;html=1;align=center;verticalAlign=middle;resizable=0;points=[];autosize=1;strokeColor=none;fillColor=none;" parent="1" vertex="1">
          <mxGeometry x="80" y="630" width="30" height="30" as="geometry" />
        </mxCell>
        <mxCell id="ibcruFRzmaZoAH3_3LqD-72" style="edgeStyle=orthogonalEdgeStyle;rounded=0;orthogonalLoop=1;jettySize=auto;html=1;endArrow=none;startFill=0;" parent="1" source="ibcruFRzmaZoAH3_3LqD-73" target="ibcruFRzmaZoAH3_3LqD-3" edge="1">
          <mxGeometry relative="1" as="geometry">
            <mxPoint x="-230" y="654.9966666666667" as="targetPoint" />
            <mxPoint x="-40" y="614.9300000000001" as="sourcePoint" />
            <Array as="points">
              <mxPoint x="-160" y="630" />
              <mxPoint x="-160" y="630" />
            </Array>
          </mxGeometry>
        </mxCell>
        <mxCell id="ibcruFRzmaZoAH3_3LqD-73" value="TIENE" style="rhombus;whiteSpace=wrap;html=1;" parent="1" vertex="1">
          <mxGeometry x="-90" y="590" width="80" height="80" as="geometry" />
        </mxCell>
        <mxCell id="ibcruFRzmaZoAH3_3LqD-77" style="rounded=0;orthogonalLoop=1;jettySize=auto;html=1;endArrow=none;startFill=0;entryX=0;entryY=0.5;entryDx=0;entryDy=0;" parent="1" source="ibcruFRzmaZoAH3_3LqD-78" target="ibcruFRzmaZoAH3_3LqD-2" edge="1">
          <mxGeometry relative="1" as="geometry">
            <mxPoint x="846.5" y="226.25" as="targetPoint" />
          </mxGeometry>
        </mxCell>
        <mxCell id="ibcruFRzmaZoAH3_3LqD-78" value="&lt;u&gt;USER_ID&lt;/u&gt;" style="ellipse;whiteSpace=wrap;html=1;" parent="1" vertex="1">
          <mxGeometry x="710" y="147.5" width="70" height="40" as="geometry" />
        </mxCell>
        <mxCell id="ibcruFRzmaZoAH3_3LqD-82" style="rounded=0;orthogonalLoop=1;jettySize=auto;html=1;endArrow=none;startFill=0;" parent="1" source="ibcruFRzmaZoAH3_3LqD-79" target="ibcruFRzmaZoAH3_3LqD-3" edge="1">
          <mxGeometry relative="1" as="geometry" />
        </mxCell>
        <mxCell id="ibcruFRzmaZoAH3_3LqD-79" value="PAIS" style="ellipse;whiteSpace=wrap;html=1;" parent="1" vertex="1">
          <mxGeometry x="-230" y="770" width="70" height="40" as="geometry" />
        </mxCell>
        <mxCell id="ibcruFRzmaZoAH3_3LqD-83" style="rounded=0;orthogonalLoop=1;jettySize=auto;html=1;endArrow=none;startFill=0;" parent="1" source="ibcruFRzmaZoAH3_3LqD-80" target="ibcruFRzmaZoAH3_3LqD-3" edge="1">
          <mxGeometry relative="1" as="geometry" />
        </mxCell>
        <mxCell id="ibcruFRzmaZoAH3_3LqD-80" value="CIUDAD" style="ellipse;whiteSpace=wrap;html=1;" parent="1" vertex="1">
          <mxGeometry x="-240" y="840" width="75" height="40" as="geometry" />
        </mxCell>
        <mxCell id="ibcruFRzmaZoAH3_3LqD-84" value="LATITUD" style="ellipse;whiteSpace=wrap;html=1;" parent="1" vertex="1">
          <mxGeometry x="-740" y="760" width="120" height="50" as="geometry" />
        </mxCell>
        <mxCell id="ibcruFRzmaZoAH3_3LqD-86" style="rounded=0;orthogonalLoop=1;jettySize=auto;html=1;endArrow=none;startFill=0;" parent="1" source="ibcruFRzmaZoAH3_3LqD-85" target="ibcruFRzmaZoAH3_3LqD-21" edge="1">
          <mxGeometry relative="1" as="geometry" />
        </mxCell>
        <mxCell id="ibcruFRzmaZoAH3_3LqD-85" value="LONGITUD" style="ellipse;whiteSpace=wrap;html=1;" parent="1" vertex="1">
          <mxGeometry x="-750" y="666.25" width="120" height="50" as="geometry" />
        </mxCell>
        <mxCell id="ibcruFRzmaZoAH3_3LqD-87" style="rounded=0;orthogonalLoop=1;jettySize=auto;html=1;entryX=0.036;entryY=0.716;entryDx=0;entryDy=0;entryPerimeter=0;endArrow=none;startFill=0;" parent="1" source="ibcruFRzmaZoAH3_3LqD-84" target="ibcruFRzmaZoAH3_3LqD-21" edge="1">
          <mxGeometry relative="1" as="geometry" />
        </mxCell>
        <mxCell id="ibcruFRzmaZoAH3_3LqD-89" style="rounded=0;orthogonalLoop=1;jettySize=auto;html=1;endArrow=none;startFill=0;" parent="1" source="ibcruFRzmaZoAH3_3LqD-88" target="ibcruFRzmaZoAH3_3LqD-3" edge="1">
          <mxGeometry relative="1" as="geometry" />
        </mxCell>
        <mxCell id="ibcruFRzmaZoAH3_3LqD-88" value="LOCALIDAD" style="ellipse;whiteSpace=wrap;html=1;" parent="1" vertex="1">
          <mxGeometry x="-140" y="795" width="90" height="40" as="geometry" />
        </mxCell>
        <mxCell id="ibcruFRzmaZoAH3_3LqD-91" style="rounded=0;orthogonalLoop=1;jettySize=auto;html=1;endArrow=none;startFill=0;" parent="1" source="ibcruFRzmaZoAH3_3LqD-90" target="ibcruFRzmaZoAH3_3LqD-3" edge="1">
          <mxGeometry relative="1" as="geometry" />
        </mxCell>
        <mxCell id="ibcruFRzmaZoAH3_3LqD-90" value="LUAR_ID" style="ellipse;whiteSpace=wrap;html=1;fontStyle=4" parent="1" vertex="1">
          <mxGeometry x="-160" y="735" width="90" height="30" as="geometry" />
        </mxCell>
        <mxCell id="ibcruFRzmaZoAH3_3LqD-92" value="1" style="text;html=1;align=center;verticalAlign=middle;resizable=0;points=[];autosize=1;strokeColor=none;fillColor=none;" parent="1" vertex="1">
          <mxGeometry x="-230" y="625" width="30" height="30" as="geometry" />
        </mxCell>
        <mxCell id="ibcruFRzmaZoAH3_3LqD-103" value="1" style="text;html=1;align=center;verticalAlign=middle;resizable=0;points=[];autosize=1;strokeColor=none;fillColor=none;" parent="1" vertex="1">
          <mxGeometry x="855" y="257.5" width="30" height="30" as="geometry" />
        </mxCell>
        <mxCell id="ibcruFRzmaZoAH3_3LqD-106" value="HISTORIAL" style="text;html=1;align=center;verticalAlign=middle;resizable=0;points=[];autosize=1;strokeColor=none;fillColor=none;" parent="1" vertex="1">
          <mxGeometry x="1030" y="237.5" width="90" height="30" as="geometry" />
        </mxCell>
        <mxCell id="ibcruFRzmaZoAH3_3LqD-107" style="rounded=0;orthogonalLoop=1;jettySize=auto;html=1;entryX=0.944;entryY=0.167;entryDx=0;entryDy=0;entryPerimeter=0;endArrow=classic;startFill=0;endFill=1;" parent="1" source="ibcruFRzmaZoAH3_3LqD-106" target="ibcruFRzmaZoAH3_3LqD-40" edge="1">
          <mxGeometry relative="1" as="geometry">
            <mxPoint x="1020" y="265.5" as="sourcePoint" />
          </mxGeometry>
        </mxCell>
        <mxCell id="CdbYqR2ihA_3ERL0Ujwt-2" style="rounded=0;orthogonalLoop=1;jettySize=auto;html=1;endArrow=none;startFill=0;" parent="1" source="CdbYqR2ihA_3ERL0Ujwt-1" target="ibcruFRzmaZoAH3_3LqD-2" edge="1">
          <mxGeometry relative="1" as="geometry" />
        </mxCell>
        <mxCell id="CdbYqR2ihA_3ERL0Ujwt-1" value="CONTRASEÑA" style="ellipse;whiteSpace=wrap;html=1;fontStyle=0" parent="1" vertex="1">
          <mxGeometry x="1040" y="117.5" width="110" height="40" as="geometry" />
        </mxCell>
        <mxCell id="CdbYqR2ihA_3ERL0Ujwt-4" style="rounded=0;orthogonalLoop=1;jettySize=auto;html=1;entryX=0;entryY=1;entryDx=0;entryDy=0;endArrow=none;startFill=0;" parent="1" source="CdbYqR2ihA_3ERL0Ujwt-3" target="ibcruFRzmaZoAH3_3LqD-40" edge="1">
          <mxGeometry relative="1" as="geometry" />
        </mxCell>
        <mxCell id="CdbYqR2ihA_3ERL0Ujwt-3" value="fecha_hora" style="ellipse;whiteSpace=wrap;html=1;" parent="1" vertex="1">
          <mxGeometry x="775" y="307.5" width="70" height="40" as="geometry" />
        </mxCell>
        <mxCell id="CdbYqR2ihA_3ERL0Ujwt-7" style="rounded=0;orthogonalLoop=1;jettySize=auto;html=1;endArrow=none;startFill=0;" parent="1" source="CdbYqR2ihA_3ERL0Ujwt-6" target="ibcruFRzmaZoAH3_3LqD-2" edge="1">
          <mxGeometry relative="1" as="geometry" />
        </mxCell>
        <mxCell id="CdbYqR2ihA_3ERL0Ujwt-6" value="ESTADO" style="ellipse;whiteSpace=wrap;html=1;fontStyle=0" parent="1" vertex="1">
          <mxGeometry x="1050" y="167.5" width="80" height="30" as="geometry" />
        </mxCell>
        <mxCell id="X0XYi1Hsc6SYG7ZAuI2Y-5" style="rounded=0;orthogonalLoop=1;jettySize=auto;html=1;entryX=0.5;entryY=1;entryDx=0;entryDy=0;endArrow=none;startFill=0;" edge="1" parent="1" source="X0XYi1Hsc6SYG7ZAuI2Y-3" target="ibcruFRzmaZoAH3_3LqD-3">
          <mxGeometry relative="1" as="geometry" />
        </mxCell>
        <mxCell id="X0XYi1Hsc6SYG7ZAuI2Y-3" value="COSTO ENTRADA" style="ellipse;whiteSpace=wrap;html=1;" vertex="1" parent="1">
          <mxGeometry x="-340" y="820" width="90" height="40" as="geometry" />
        </mxCell>
        <mxCell id="X0XYi1Hsc6SYG7ZAuI2Y-4" value="HORARIO APERTURA/CIERE" style="ellipse;whiteSpace=wrap;html=1;" vertex="1" parent="1">
          <mxGeometry x="-435" y="860" width="135" height="70" as="geometry" />
        </mxCell>
        <mxCell id="X0XYi1Hsc6SYG7ZAuI2Y-6" style="rounded=0;orthogonalLoop=1;jettySize=auto;html=1;entryX=0.358;entryY=1.017;entryDx=0;entryDy=0;entryPerimeter=0;endArrow=none;startFill=0;" edge="1" parent="1" source="X0XYi1Hsc6SYG7ZAuI2Y-4" target="ibcruFRzmaZoAH3_3LqD-3">
          <mxGeometry relative="1" as="geometry" />
        </mxCell>
        <mxCell id="X0XYi1Hsc6SYG7ZAuI2Y-7" style="edgeStyle=orthogonalEdgeStyle;rounded=0;orthogonalLoop=1;jettySize=auto;html=1;endArrow=none;startFill=0;" edge="1" parent="1" source="ibcruFRzmaZoAH3_3LqD-58" target="ibcruFRzmaZoAH3_3LqD-73">
          <mxGeometry relative="1" as="geometry" />
        </mxCell>
        <mxCell id="X0XYi1Hsc6SYG7ZAuI2Y-8" value="HISTO&lt;span style=&quot;background-color: transparent; color: light-dark(rgb(0, 0, 0), rgb(255, 255, 255));&quot;&gt;RIA&lt;/span&gt;" style="rounded=1;whiteSpace=wrap;html=1;" vertex="1" parent="1">
          <mxGeometry x="-370" y="283.75" width="120" height="60" as="geometry" />
        </mxCell>
        <mxCell id="X0XYi1Hsc6SYG7ZAuI2Y-9" value="ESTADO" style="ellipse;whiteSpace=wrap;html=1;" vertex="1" parent="1">
          <mxGeometry x="-465" y="102.5" width="70" height="40" as="geometry" />
        </mxCell>
        <mxCell id="X0XYi1Hsc6SYG7ZAuI2Y-10" style="rounded=0;orthogonalLoop=1;jettySize=auto;html=1;endArrow=none;startFill=0;" edge="1" parent="1" source="X0XYi1Hsc6SYG7ZAuI2Y-11" target="X0XYi1Hsc6SYG7ZAuI2Y-8">
          <mxGeometry relative="1" as="geometry" />
        </mxCell>
        <mxCell id="X0XYi1Hsc6SYG7ZAuI2Y-11" value="NOMBRE" style="ellipse;whiteSpace=wrap;html=1;" vertex="1" parent="1">
          <mxGeometry x="-550" y="197.5" width="70" height="40" as="geometry" />
        </mxCell>
        <mxCell id="X0XYi1Hsc6SYG7ZAuI2Y-16" style="rounded=0;orthogonalLoop=1;jettySize=auto;html=1;endArrow=none;startFill=0;" edge="1" parent="1" source="X0XYi1Hsc6SYG7ZAuI2Y-9" target="X0XYi1Hsc6SYG7ZAuI2Y-8">
          <mxGeometry relative="1" as="geometry" />
        </mxCell>
        <mxCell id="X0XYi1Hsc6SYG7ZAuI2Y-31" style="rounded=0;orthogonalLoop=1;jettySize=auto;html=1;endArrow=none;startFill=0;" edge="1" parent="1" source="X0XYi1Hsc6SYG7ZAuI2Y-32" target="X0XYi1Hsc6SYG7ZAuI2Y-8">
          <mxGeometry relative="1" as="geometry" />
        </mxCell>
        <mxCell id="X0XYi1Hsc6SYG7ZAuI2Y-32" value="DESCRIPCION" style="ellipse;whiteSpace=wrap;html=1;" vertex="1" parent="1">
          <mxGeometry x="-390" y="135" width="105" height="43.75" as="geometry" />
        </mxCell>
        <mxCell id="X0XYi1Hsc6SYG7ZAuI2Y-33" value="FECHA" style="ellipse;whiteSpace=wrap;html=1;" vertex="1" parent="1">
          <mxGeometry x="-305" y="92.5" width="80" height="42.5" as="geometry" />
        </mxCell>
        <mxCell id="X0XYi1Hsc6SYG7ZAuI2Y-34" style="rounded=0;orthogonalLoop=1;jettySize=auto;html=1;endArrow=none;startFill=0;" edge="1" parent="1" source="X0XYi1Hsc6SYG7ZAuI2Y-33" target="X0XYi1Hsc6SYG7ZAuI2Y-8">
          <mxGeometry relative="1" as="geometry">
            <mxPoint x="-300.3258033541115" y="201.21931650713248" as="sourcePoint" />
          </mxGeometry>
        </mxCell>
        <mxCell id="X0XYi1Hsc6SYG7ZAuI2Y-36" style="edgeStyle=orthogonalEdgeStyle;rounded=0;orthogonalLoop=1;jettySize=auto;html=1;endArrow=none;endFill=1;startFill=0;" edge="1" parent="1" source="X0XYi1Hsc6SYG7ZAuI2Y-35" target="X0XYi1Hsc6SYG7ZAuI2Y-8">
          <mxGeometry relative="1" as="geometry" />
        </mxCell>
        <mxCell id="X0XYi1Hsc6SYG7ZAuI2Y-35" value="TIENE" style="rhombus;whiteSpace=wrap;html=1;" vertex="1" parent="1">
          <mxGeometry x="-350" y="440" width="80" height="80" as="geometry" />
        </mxCell>
        <mxCell id="X0XYi1Hsc6SYG7ZAuI2Y-38" value="1" style="text;html=1;align=center;verticalAlign=middle;resizable=0;points=[];autosize=1;strokeColor=none;fillColor=none;" vertex="1" parent="1">
          <mxGeometry x="-310" y="570" width="30" height="30" as="geometry" />
        </mxCell>
        <mxCell id="X0XYi1Hsc6SYG7ZAuI2Y-39" value="1" style="text;html=1;align=center;verticalAlign=middle;resizable=0;points=[];autosize=1;strokeColor=none;fillColor=none;" vertex="1" parent="1">
          <mxGeometry x="-310" y="370" width="30" height="30" as="geometry" />
        </mxCell>
        <mxCell id="X0XYi1Hsc6SYG7ZAuI2Y-42" style="rounded=0;orthogonalLoop=1;jettySize=auto;html=1;endArrow=none;startFill=0;" edge="1" parent="1" source="X0XYi1Hsc6SYG7ZAuI2Y-41" target="X0XYi1Hsc6SYG7ZAuI2Y-8">
          <mxGeometry relative="1" as="geometry" />
        </mxCell>
        <mxCell id="X0XYi1Hsc6SYG7ZAuI2Y-41" value="HISTORIA_ID" style="ellipse;whiteSpace=wrap;html=1;fontStyle=4" vertex="1" parent="1">
          <mxGeometry x="-260" y="142.5" width="80" height="42.5" as="geometry" />
        </mxCell>
      </root>
    </mxGraphModel>
  </diagram>
</mxfile>
